<svg width="24" height="294" viewBox="0 0 294 294" fill="none" xmlns="http://www.w3.org/2000/svg">
<g clip-path="url(#clip0)">
<path d="M267.696 235.672L255.828 231.551C262.472 226.289 266.745 218.16 266.745 209.047V200.348C266.745 184.522 253.867 171.644 238.041 171.644C222.214 171.644 209.336 184.522 209.336 200.348V209.047C209.336 218.16 213.612 226.289 220.256 231.551L208.385 235.672C200.772 238.316 194.373 243.166 189.791 249.35H157.728V236.697C157.728 220.042 147.157 205.182 131.424 199.72L119.554 195.6C126.198 190.338 130.473 182.209 130.473 173.096V164.397C130.473 148.568 117.596 135.693 101.769 135.693C85.9422 135.693 73.0648 148.57 73.0648 164.397V173.096C73.0648 182.209 77.3401 190.338 83.9817 195.6L72.1138 199.72C56.3811 205.182 45.8096 220.042 45.8096 236.697V249.35H4.34926C1.94696 249.35 0 251.297 0 253.699V289.651C0 292.053 1.94696 294 4.34926 294H185.273C185.468 294 185.661 293.982 185.852 293.957C186.042 293.982 186.235 294 186.433 294H289.651C292.053 294 294 292.053 294 289.651V272.648C294 255.996 283.431 241.136 267.696 235.672ZM218.035 200.348C218.035 189.317 227.009 180.343 238.041 180.343C249.072 180.343 258.046 189.317 258.046 200.348V209.047C258.046 220.078 249.072 229.053 238.041 229.053C227.009 229.053 218.035 220.078 218.035 209.047V200.348ZM81.7634 164.397C81.7634 153.366 90.7378 144.391 101.769 144.391C112.8 144.391 121.775 153.366 121.775 164.397V173.096C121.775 184.127 112.8 193.101 101.769 193.101C90.7378 193.101 81.7634 184.127 81.7634 173.096V164.397ZM110.894 201.8L115.12 203.267L101.769 226.431L88.4185 203.267L92.6444 201.8H110.894ZM54.5082 236.697C54.5082 223.743 62.7312 212.185 74.9669 207.937L80.0542 206.171L98.0007 237.314C98.7768 238.662 100.215 239.492 101.769 239.492C103.323 239.492 104.761 238.662 105.537 237.314L123.484 206.171L128.571 207.937C140.807 212.185 149.028 223.743 149.028 236.697V249.35H54.5082V236.697ZM8.69852 258.049H184.916C183.082 262.6 182.083 267.539 182.083 272.648V285.301H8.69852V258.049ZM285.301 285.301H190.782V272.648C190.782 259.695 199.003 248.139 211.238 243.888L228.916 237.751H247.165L264.843 243.888C277.081 248.139 285.301 259.695 285.301 272.648V285.301Z" fill="#6B9EFF"/>
<path d="M266.455 31.3129H222.276C219.874 31.3129 217.927 33.2621 217.927 35.6621C217.927 38.0644 219.874 40.0114 222.276 40.0114H266.455C276.847 40.0114 285.301 48.4654 285.301 58.8597V119.166C285.301 129.558 276.847 138.012 266.455 138.012H206.728C204.325 138.012 202.378 139.959 202.378 142.361V160.858L180.809 139.286C179.993 138.47 178.887 138.012 177.734 138.012H142.361C131.969 138.012 123.513 129.558 123.513 119.166V58.8574C123.513 48.4654 131.967 40.0114 142.361 40.0114H201.943C204.346 40.0114 206.293 38.0644 206.293 35.6621C206.293 33.2598 204.346 31.3129 201.943 31.3129H179.183V27.5446C179.183 12.3569 166.826 0 151.639 0H27.5446C12.3569 0 0 12.3569 0 27.5446V37.1605C0 39.5628 1.94696 41.5097 4.34926 41.5097C6.75156 41.5097 8.69852 39.5628 8.69852 37.1605V27.5446C8.69852 17.1525 17.1525 8.69852 27.5446 8.69852H151.639C162.031 8.69852 170.485 17.1525 170.485 27.5446V31.3129H142.361C127.174 31.3129 114.817 43.6698 114.817 58.8574V106.697H69.2965C66.8942 106.697 64.9473 108.644 64.9473 111.046V129.542L43.3782 107.971C42.5617 107.155 41.4559 106.697 40.303 106.697H27.5446C17.1525 106.697 8.69852 98.243 8.69852 87.851V57.3837C8.69852 54.9814 6.75156 53.0345 4.34926 53.0345C1.94696 53.0345 0 54.9814 0 57.3837V87.851C0 103.041 12.3569 115.396 27.5446 115.396H38.4996L66.2213 143.117C67.0535 143.949 68.166 144.391 69.2965 144.389C69.8573 144.389 70.4225 144.281 70.9609 144.059C72.5848 143.386 73.6458 141.801 73.6458 140.042V115.396H114.817V119.166C114.817 134.354 127.174 146.708 142.361 146.708H175.933L203.653 174.43C204.485 175.262 205.597 175.704 206.728 175.704C207.288 175.704 207.854 175.597 208.392 175.372C210.016 174.699 211.077 173.113 211.077 171.355V146.708H266.455C281.643 146.708 294 134.354 294 119.166V58.8574C294 43.6698 281.643 31.3129 266.455 31.3129Z" fill="#6B9EFF"/>
</g>
<defs>
<clipPath id="clip0">
<rect width="294" height="294" fill="white"/>
</clipPath>
</defs>
</svg>
