<svg width="200" height="200" viewBox="0 0 200 200" fill="none" xmlns="http://www.w3.org/2000/svg">
<path fill-rule="evenodd" clip-rule="evenodd" d="M166.667 25H33.3333C24.1667 25 16.6667 32.5 16.6667 41.6667V158.333C16.6667 167.5 24.1667 175 33.3333 175H166.667C175.833 175 183.333 167.5 183.333 158.333V41.6667C183.333 32.5 175.833 25 166.667 25ZM83.3333 141.667H41.6667V125H83.3333V141.667ZM83.3333 108.333H41.6667V91.6667H83.3333V108.333ZM83.3333 75H41.6667V58.3333H83.3333V75ZM123.5 125L100 101.333L111.75 89.5833L123.5 101.417L149.917 75L161.75 86.8333L123.5 125Z" fill="#6B95FF"/>
</svg>
